<mxfile host="65bd71144e">
    <diagram id="hIw_-yPlLjSUtIWtLVxQ" name="第 1 页">
        <mxGraphModel dx="986" dy="433" grid="1" gridSize="10" guides="1" tooltips="1" connect="1" arrows="1" fold="1" page="1" pageScale="1" pageWidth="827" pageHeight="1169" math="0" shadow="0">
            <root>
                <mxCell id="0"/>
                <mxCell id="1" parent="0"/>
                <mxCell id="6" value="" style="shape=link;html=1;" edge="1" parent="1" target="28">
                    <mxGeometry width="100" relative="1" as="geometry">
                        <mxPoint x="120" y="400" as="sourcePoint"/>
                        <mxPoint x="800" y="400" as="targetPoint"/>
                    </mxGeometry>
                </mxCell>
                <mxCell id="8" value="节流的过程" style="text;html=1;align=center;verticalAlign=middle;resizable=0;points=[];autosize=1;strokeColor=none;fillColor=#FF0000;" vertex="1" parent="1">
                    <mxGeometry x="320" y="170" width="80" height="30" as="geometry"/>
                </mxCell>
                <mxCell id="9" value="" style="shape=singleArrow;direction=north;whiteSpace=wrap;html=1;fillColor=#FF0000;" vertex="1" parent="1">
                    <mxGeometry x="110" y="300" width="20" height="100" as="geometry"/>
                </mxCell>
                <mxCell id="12" value="10s" style="text;html=1;align=center;verticalAlign=middle;resizable=0;points=[];autosize=1;strokeColor=none;fillColor=#66CC00;" vertex="1" parent="1">
                    <mxGeometry x="260" y="410" width="40" height="30" as="geometry"/>
                </mxCell>
                <mxCell id="13" value="10s" style="text;html=1;align=center;verticalAlign=middle;resizable=0;points=[];autosize=1;strokeColor=none;fillColor=#66CC00;" vertex="1" parent="1">
                    <mxGeometry x="460" y="410" width="40" height="30" as="geometry"/>
                </mxCell>
                <mxCell id="14" value="10s" style="text;html=1;align=center;verticalAlign=middle;resizable=0;points=[];autosize=1;strokeColor=none;fillColor=#66CC00;" vertex="1" parent="1">
                    <mxGeometry x="660" y="410" width="40" height="30" as="geometry"/>
                </mxCell>
                <mxCell id="15" value="fristTime" style="text;html=1;align=center;verticalAlign=middle;resizable=0;points=[];autosize=1;strokeColor=none;fillColor=none;" vertex="1" parent="1">
                    <mxGeometry x="85" y="415" width="70" height="30" as="geometry"/>
                </mxCell>
                <mxCell id="16" value="lastTime / fristTime" style="text;html=1;align=center;verticalAlign=middle;resizable=0;points=[];autosize=1;strokeColor=none;fillColor=none;" vertex="1" parent="1">
                    <mxGeometry x="220" y="440" width="120" height="30" as="geometry"/>
                </mxCell>
                <mxCell id="17" value="lastTime / fristTime" style="text;html=1;align=center;verticalAlign=middle;resizable=0;points=[];autosize=1;strokeColor=none;fillColor=none;" vertex="1" parent="1">
                    <mxGeometry x="420" y="440" width="120" height="30" as="geometry"/>
                </mxCell>
                <mxCell id="18" value="lastTime / fristTime" style="text;html=1;align=center;verticalAlign=middle;resizable=0;points=[];autosize=1;strokeColor=none;fillColor=none;" vertex="1" parent="1">
                    <mxGeometry x="620" y="440" width="120" height="30" as="geometry"/>
                </mxCell>
                <mxCell id="19" value="1.每10s执行一次，不管10s之内触发了多少次，只是在每个阶段的第10s执行当前时间点上的事件" style="text;html=1;align=center;verticalAlign=middle;resizable=0;points=[];autosize=1;strokeColor=none;fillColor=#003300;" vertex="1" parent="1">
                    <mxGeometry x="120" y="500" width="540" height="30" as="geometry"/>
                </mxCell>
                <mxCell id="20" value="&amp;nbsp; &amp;nbsp; &amp;nbsp; 计算公式： 间隔时间&amp;nbsp; =&amp;nbsp; &amp;nbsp;节流时间 - （当前事件时间 - 首次事件时间）&amp;nbsp;&lt;br&gt;当间隔时间 &amp;lt;= 0时 就执行一次事件，此时进入下一个阶段，首次执行时间就是上个阶段的执行时间" style="text;html=1;align=center;verticalAlign=middle;resizable=0;points=[];autosize=1;strokeColor=none;fillColor=#33001A;" vertex="1" parent="1">
                    <mxGeometry x="120" y="560" width="550" height="40" as="geometry"/>
                </mxCell>
                <mxCell id="37" style="edgeStyle=none;html=1;exitX=1;exitY=0.5;exitDx=0;exitDy=0;exitPerimeter=0;entryX=0.138;entryY=1.167;entryDx=0;entryDy=0;entryPerimeter=0;" edge="1" parent="1" source="22" target="36">
                    <mxGeometry relative="1" as="geometry"/>
                </mxCell>
                <mxCell id="22" value="" style="shape=singleArrow;direction=north;whiteSpace=wrap;html=1;fillColor=#66CC00;" vertex="1" parent="1">
                    <mxGeometry x="140" y="330" width="10" height="70" as="geometry"/>
                </mxCell>
                <mxCell id="38" style="edgeStyle=none;html=1;exitX=1;exitY=0.5;exitDx=0;exitDy=0;exitPerimeter=0;entryX=0.258;entryY=0.967;entryDx=0;entryDy=0;entryPerimeter=0;" edge="1" parent="1" source="25" target="36">
                    <mxGeometry relative="1" as="geometry"/>
                </mxCell>
                <mxCell id="25" value="" style="shape=singleArrow;direction=north;whiteSpace=wrap;html=1;fillColor=#66CC00;" vertex="1" parent="1">
                    <mxGeometry x="170" y="330" width="10" height="70" as="geometry"/>
                </mxCell>
                <mxCell id="39" style="edgeStyle=none;html=1;exitX=1;exitY=0.5;exitDx=0;exitDy=0;exitPerimeter=0;entryX=0.37;entryY=1.033;entryDx=0;entryDy=0;entryPerimeter=0;" edge="1" parent="1" source="26" target="36">
                    <mxGeometry relative="1" as="geometry"/>
                </mxCell>
                <mxCell id="26" value="" style="shape=singleArrow;direction=north;whiteSpace=wrap;html=1;fillColor=#66CC00;" vertex="1" parent="1">
                    <mxGeometry x="195" y="330" width="10" height="70" as="geometry"/>
                </mxCell>
                <mxCell id="28" value="" style="shape=waypoint;sketch=0;fillStyle=solid;size=6;pointerEvents=1;points=[];fillColor=none;resizable=0;rotatable=0;perimeter=centerPerimeter;snapToPoint=1;" vertex="1" parent="1">
                    <mxGeometry x="790" y="390" width="20" height="20" as="geometry"/>
                </mxCell>
                <mxCell id="29" value="" style="shape=waypoint;sketch=0;fillStyle=solid;size=6;pointerEvents=1;points=[];fillColor=#FFFF00;resizable=0;rotatable=0;perimeter=centerPerimeter;snapToPoint=1;" vertex="1" parent="1">
                    <mxGeometry x="270" y="380" width="20" height="20" as="geometry"/>
                </mxCell>
                <mxCell id="31" value="" style="shape=waypoint;sketch=0;fillStyle=solid;size=6;pointerEvents=1;points=[];fillColor=none;resizable=0;rotatable=0;perimeter=centerPerimeter;snapToPoint=1;" vertex="1" parent="1">
                    <mxGeometry x="470" y="380" width="20" height="20" as="geometry"/>
                </mxCell>
                <mxCell id="32" value="" style="shape=waypoint;sketch=0;fillStyle=solid;size=6;pointerEvents=1;points=[];fillColor=none;resizable=0;rotatable=0;perimeter=centerPerimeter;snapToPoint=1;" vertex="1" parent="1">
                    <mxGeometry x="670" y="380" width="20" height="20" as="geometry"/>
                </mxCell>
                <mxCell id="33" value="" style="shape=curlyBracket;whiteSpace=wrap;html=1;rounded=1;flipH=1;labelPosition=right;verticalLabelPosition=middle;align=left;verticalAlign=middle;fillColor=#FFFF00;direction=south;" vertex="1" parent="1">
                    <mxGeometry x="200" y="355" width="80" height="20" as="geometry"/>
                </mxCell>
                <mxCell id="34" value="间隔时间" style="text;html=1;align=center;verticalAlign=middle;resizable=0;points=[];autosize=1;strokeColor=none;fillColor=none;" vertex="1" parent="1">
                    <mxGeometry x="205" y="335" width="70" height="30" as="geometry"/>
                </mxCell>
                <mxCell id="36" value="每个事件触发的的当前时间&amp;nbsp; &amp;nbsp;new Date().getTime（）" style="text;html=1;align=center;verticalAlign=middle;resizable=0;points=[];autosize=1;strokeColor=none;fillColor=#330000;" vertex="1" parent="1">
                    <mxGeometry x="160" y="230" width="310" height="30" as="geometry"/>
                </mxCell>
                <mxCell id="40" value="" style="shape=singleArrow;direction=north;whiteSpace=wrap;html=1;fillColor=#66CC00;" vertex="1" parent="1">
                    <mxGeometry x="330" y="330" width="10" height="70" as="geometry"/>
                </mxCell>
                <mxCell id="41" value="" style="shape=singleArrow;direction=north;whiteSpace=wrap;html=1;fillColor=#66CC00;" vertex="1" parent="1">
                    <mxGeometry x="395" y="330" width="10" height="70" as="geometry"/>
                </mxCell>
                <mxCell id="42" value="" style="shape=singleArrow;direction=north;whiteSpace=wrap;html=1;fillColor=#66CC00;" vertex="1" parent="1">
                    <mxGeometry x="550" y="330" width="10" height="70" as="geometry"/>
                </mxCell>
                <mxCell id="43" value="" style="shape=singleArrow;direction=north;whiteSpace=wrap;html=1;fillColor=#66CC00;" vertex="1" parent="1">
                    <mxGeometry x="600" y="330" width="10" height="70" as="geometry"/>
                </mxCell>
                <mxCell id="44" value="" style="shape=singleArrow;direction=north;whiteSpace=wrap;html=1;fillColor=#66CC00;" vertex="1" parent="1">
                    <mxGeometry x="720" y="330" width="10" height="70" as="geometry"/>
                </mxCell>
                <mxCell id="45" value="" style="shape=singleArrow;direction=north;whiteSpace=wrap;html=1;fillColor=#66CC00;" vertex="1" parent="1">
                    <mxGeometry x="760" y="330" width="10" height="70" as="geometry"/>
                </mxCell>
                <mxCell id="46" value="" style="shape=singleArrow;direction=north;whiteSpace=wrap;html=1;fillColor=#66CC00;" vertex="1" parent="1">
                    <mxGeometry x="640" y="330" width="10" height="70" as="geometry"/>
                </mxCell>
                <mxCell id="47" value="" style="shape=singleArrow;direction=north;whiteSpace=wrap;html=1;fillColor=#66CC00;" vertex="1" parent="1">
                    <mxGeometry x="440" y="330" width="10" height="70" as="geometry"/>
                </mxCell>
                <mxCell id="48" value="" style="shape=singleArrow;direction=north;whiteSpace=wrap;html=1;fillColor=#66CC00;" vertex="1" parent="1">
                    <mxGeometry x="500" y="330" width="10" height="70" as="geometry"/>
                </mxCell>
                <mxCell id="49" value="" style="shape=singleArrow;direction=north;whiteSpace=wrap;html=1;fillColor=#66CC00;" vertex="1" parent="1">
                    <mxGeometry x="355" y="330" width="10" height="70" as="geometry"/>
                </mxCell>
                <mxCell id="50" value="" style="shape=singleArrow;direction=north;whiteSpace=wrap;html=1;fillColor=#66CC00;" vertex="1" parent="1">
                    <mxGeometry x="300" y="330" width="10" height="70" as="geometry"/>
                </mxCell>
            </root>
        </mxGraphModel>
    </diagram>
</mxfile>